<?xml version="1.0" encoding="utf-8"?>
<!-- Generator: Adobe Illustrator 23.0.5, SVG Export Plug-In . SVG Version: 6.00 Build 0)  -->
<svg version="1.1" id="Capa_1" xmlns="http://www.w3.org/2000/svg" xmlns:xlink="http://www.w3.org/1999/xlink" x="0px" y="0px"
	 viewBox="0 0 1920 1080" style="enable-background:new 0 0 1920 1080;" xml:space="preserve">
<style type="text/css">
	.st0{fill:#D8EFFC;stroke:#283B90;stroke-width:6;stroke-miterlimit:10;}
	.st1{fill:#0B7CC1;}
	.st2{fill:#FFFFFF;}
	.st3{fill:#FCC022;}
	.st4{font-family:'AkzidenzGroteskBQ-Cnd';}
	.st5{font-size:44.6518px;}
	.st6{fill:#D8EFFC;}
	.st7{fill:#283B90;}
</style>
<path class="st0" d="M1553.2,1062.2H366.8c-25.6,0-46.6-20.9-46.6-46.6V111.5c0-25.6,21-46.6,46.6-46.6h1186.5
	c25.6,0,46.6,20.9,46.6,46.6v904.2C1599.8,1041.2,1578.8,1062.2,1553.2,1062.2z"/>
<path class="st1" d="M1516.8,290.3H367.7c-6.6,0-12-5.4-12-12v-31.8c0-6.6,5.4-12,12-12h1149.2c6.6,0,12,5.4,12,12v31.8
	C1528.8,284.9,1523.4,290.3,1516.8,290.3z"/>
<path class="st2" d="M1516.8,209H367.7c-6.6,0-12-5.4-12-12v-30.6c0-6.6,5.4-12,12-12h1149.2c6.6,0,12,5.4,12,12V197
	C1528.8,203.6,1523.4,209,1516.8,209z"/>
<path class="st2" d="M566,977.8H367.7c-6.6,0-12-5.4-12-12V355.5c0-6.6,5.4-12,12-12H566c6.6,0,12,5.4,12,12v610.3
	C578,972.4,572.6,977.8,566,977.8z"/>
<path class="st2" d="M822.6,552.7H616c-6.6,0-12-5.4-12-12V355.5c0-6.6,5.4-12,12-12h206.7c6.6,0,12,5.4,12,12v185.1
	C834.6,547.3,829.2,552.7,822.6,552.7z"/>
<path class="st2" d="M1078,552.7H871.3c-6.6,0-12-5.4-12-12V355.5c0-6.6,5.4-12,12-12H1078c6.6,0,12,5.4,12,12v185.1
	C1090,547.3,1084.6,552.7,1078,552.7z"/>
<path class="st2" d="M1332.3,552.7h-206.7c-6.6,0-12-5.4-12-12V355.5c0-6.6,5.4-12,12-12h206.7c6.6,0,12,5.4,12,12v185.1
	C1344.3,547.3,1338.9,552.7,1332.3,552.7z"/>
<path class="st2" d="M823.6,781.1H617c-6.6,0-12-5.4-12-12V584c0-6.6,5.4-12,12-12h206.7c6.6,0,12,5.4,12,12v185.1
	C835.6,775.7,830.2,781.1,823.6,781.1z"/>
<path class="st2" d="M1078,781.1H871.3c-6.6,0-12-5.4-12-12V584c0-6.6,5.4-12,12-12H1078c6.6,0,12,5.4,12,12v185.1
	C1090,775.7,1084.6,781.1,1078,781.1z"/>
<path class="st2" d="M1332.3,781.1h-206.7c-6.6,0-12-5.4-12-12V584c0-6.6,5.4-12,12-12h206.7c6.6,0,12,5.4,12,12v185.1
	C1344.3,775.7,1338.9,781.1,1332.3,781.1z"/>
<path class="st2" d="M823.6,989.6H617c-6.6,0-12-5.4-12-12V792.4c0-6.6,5.4-12,12-12h206.7c6.6,0,12,5.4,12,12v185.1
	C835.6,984.2,830.2,989.6,823.6,989.6z"/>
<g>
	<path class="st3" d="M1813.3,64.9L1813.3,64.9c-58.7,0-106.7,44.1-106.7,97.9v931.3H1920V162.8C1920,109,1872,64.9,1813.3,64.9z"/>
	<path class="st3" d="M329,947L329,947c-58.7,0-106.7-44.1-106.7-97.9v28.2c0-53.9-48-97.9-106.7-97.9l0,0
		c-58.7,0-106.7,44.1-106.7,97.9v216.9h213.5h213.5v-245C435.7,903,387.7,947,329,947z"/>
	<path class="st3" d="M752.6,856L752.6,856c-49.6,0-91.6-31.5-103.4-73.8V676.9c0-53.9-48-97.9-106.7-97.9l0,0
		c-58.7,0-106.7,44.1-106.7,97.9v417.2h210.1h3.3h210.2V758C859.3,811.9,811.3,856,752.6,856z"/>
	<path class="st3" d="M1599.8,527.9L1599.8,527.9c-50.3,0-92.7-32.3-103.8-75.4V380c0-53.9-48-97.9-106.7-97.9l0,0
		c-58.7,0-106.7,44.1-106.7,97.9v167.7c-4.8,49.8-50.8,89.3-106.3,89.3l0,0c-49.6,0-91.6-31.5-103.4-73.8v-3.8
		c0-53.9-48-97.9-106.7-97.9l0,0c-58.7,0-106.7,44.1-106.7,97.9v534.7h210.2h3.3h210.2v-1.6h210.2v1.6h213.5V430
		C1706.5,483.9,1658.5,527.9,1599.8,527.9z"/>
</g>
<text transform="matrix(1 0 0 1 417.5601 333.7285)" class="st4 st5">Home</text>
<text transform="matrix(1 0 0 1 656.5148 333.7285)" class="st4 st5">About us</text>
<text transform="matrix(1 0 0 1 928.3634 333.7285)" class="st4 st5">Galery</text>
<text transform="matrix(1 0 0 1 1152.7615 333.7285)" class="st4 st5">Contact</text>
<path class="st6" d="M548.6,372.7H408.7c-2,0-3.6-1.6-3.6-3.6l0,0c0-2,1.6-3.6,3.6-3.6h139.9c2,0,3.6,1.6,3.6,3.6l0,0
	C552.2,371.1,550.6,372.7,548.6,372.7z"/>
<path class="st6" d="M548.6,392.8H408.7c-2,0-3.6-1.6-3.6-3.6l0,0c0-2,1.6-3.6,3.6-3.6h139.9c2,0,3.6,1.6,3.6,3.6l0,0
	C552.2,391.2,550.6,392.8,548.6,392.8z"/>
<path class="st6" d="M548.6,413H408.7c-2,0-3.6-1.6-3.6-3.6l0,0c0-2,1.6-3.6,3.6-3.6h139.9c2,0,3.6,1.6,3.6,3.6l0,0
	C552.2,411.3,550.6,413,548.6,413z"/>
<path class="st6" d="M548.6,433H408.7c-2,0-3.6-1.6-3.6-3.6l0,0c0-2,1.6-3.6,3.6-3.6h139.9c2,0,3.6,1.6,3.6,3.6l0,0
	C552.2,431.4,550.6,433,548.6,433z"/>
<path class="st6" d="M548.6,453.2H408.7c-2,0-3.6-1.6-3.6-3.6l0,0c0-2,1.6-3.6,3.6-3.6h139.9c2,0,3.6,1.6,3.6,3.6l0,0
	C552.2,451.5,550.6,453.2,548.6,453.2z"/>
<path class="st6" d="M548.6,473.3H408.7c-2,0-3.6-1.6-3.6-3.6l0,0c0-2,1.6-3.6,3.6-3.6h139.9c2,0,3.6,1.6,3.6,3.6l0,0
	C552.2,471.6,550.6,473.3,548.6,473.3z"/>
<path class="st6" d="M548.6,493.4H408.7c-2,0-3.6-1.6-3.6-3.6l0,0c0-2,1.6-3.6,3.6-3.6h139.9c2,0,3.6,1.6,3.6,3.6l0,0
	C552.2,491.7,550.6,493.4,548.6,493.4z"/>
<path class="st6" d="M548.6,513.5H408.7c-2,0-3.6-1.6-3.6-3.6l0,0c0-2,1.6-3.6,3.6-3.6h139.9c2,0,3.6,1.6,3.6,3.6l0,0
	C552.2,511.8,550.6,513.5,548.6,513.5z"/>
<path class="st7" d="M396.5,172.7c0-6.9-5.6-12.4-12.4-12.4s-12.4,5.6-12.4,12.4c0,6,4.3,11.1,10,12.2v15.9c0,1.3,1.1,2.4,2.4,2.4
	s2.4-1.1,2.4-2.4v-15.9C392.2,183.7,396.5,178.7,396.5,172.7z M384.1,181.9c-5.1,0-9.2-4.1-9.2-9.2s4.1-9.2,9.2-9.2s9.2,4.1,9.2,9.2
	C393.3,177.8,389.1,181.9,384.1,181.9z"/>
</svg>
