<?xml version="1.0" encoding="utf-8"?>
<!-- Generator: Adobe Illustrator 23.0.5, SVG Export Plug-In . SVG Version: 6.00 Build 0)  -->
<svg version="1.1" id="Capa_1" xmlns="http://www.w3.org/2000/svg" xmlns:xlink="http://www.w3.org/1999/xlink" x="0px" y="0px"
	 viewBox="0 0 1920 1124.5" style="enable-background:new 0 0 1920 1124.5;" xml:space="preserve">
<style type="text/css">
	.st0{display:none;}
	.st1{display:inline;fill:#D8EFFC;stroke:#283B90;stroke-width:6;stroke-miterlimit:10;}
	.st2{display:inline;fill:#0B7CC1;}
	.st3{display:inline;fill:#FFFFFF;}
	.st4{display:inline;}
	.st5{font-family:'AkzidenzGroteskBQ-Cnd';}
	.st6{font-size:44.6518px;}
	.st7{display:inline;fill:#D8EFFC;}
	.st8{display:inline;fill:#283B90;}
	.st9{fill:#FCC022;}
</style>
<g class="st0">
	<path class="st1" d="M1553.2,1106.7H366.8c-25.6,0-46.6-21-46.6-46.6V156c0-25.6,21-46.6,46.6-46.6h1186.5
		c25.6,0,46.6,21,46.6,46.6v904.2C1599.8,1085.7,1578.8,1106.7,1553.2,1106.7z"/>
</g>
<g id="botones" class="st0">
	<path class="st2" d="M1516.8,334.8H367.7c-6.6,0-12-5.4-12-12V291c0-6.6,5.4-12,12-12h1149.1c6.6,0,12,5.4,12,12v31.8
		C1528.8,329.4,1523.4,334.8,1516.8,334.8z"/>
	<path class="st3" d="M1516.8,253.5H367.7c-6.6,0-12-5.4-12-12v-30.6c0-6.6,5.4-12,12-12h1149.1c6.6,0,12,5.4,12,12v30.6
		C1528.8,248.1,1523.4,253.5,1516.8,253.5z"/>
	<path class="st3" d="M566,1022.3H367.7c-6.6,0-12-5.4-12-12V400.1c0-6.6,5.4-12,12-12H566c6.6,0,12,5.4,12,12v610.3
		C578,1016.9,572.6,1022.3,566,1022.3z"/>
	<path class="st3" d="M822.6,597.2H616c-6.6,0-12-5.4-12-12V400.1c0-6.6,5.4-12,12-12h206.7c6.6,0,12,5.4,12,12v185.1
		C834.6,591.8,829.2,597.2,822.6,597.2z"/>
	<path class="st3" d="M1078,597.2H871.3c-6.6,0-12-5.4-12-12V400.1c0-6.6,5.4-12,12-12H1078c6.6,0,12,5.4,12,12v185.1
		C1090,591.8,1084.6,597.2,1078,597.2z"/>
	<path class="st3" d="M1332.3,597.2h-206.7c-6.6,0-12-5.4-12-12V400.1c0-6.6,5.4-12,12-12h206.7c6.6,0,12,5.4,12,12v185.1
		C1344.3,591.8,1338.9,597.2,1332.3,597.2z"/>
	<path class="st3" d="M823.6,825.6H617c-6.6,0-12-5.4-12-12V628.5c0-6.6,5.4-12,12-12h206.7c6.6,0,12,5.4,12,12v185.1
		C835.6,820.2,830.2,825.6,823.6,825.6z"/>
	<path class="st3" d="M1078,825.6H871.3c-6.6,0-12-5.4-12-12V628.5c0-6.6,5.4-12,12-12H1078c6.6,0,12,5.4,12,12v185.1
		C1090,820.2,1084.6,825.6,1078,825.6z"/>
	<path class="st3" d="M1332.3,825.6h-206.7c-6.6,0-12-5.4-12-12V628.5c0-6.6,5.4-12,12-12h206.7c6.6,0,12,5.4,12,12v185.1
		C1344.3,820.2,1338.9,825.6,1332.3,825.6z"/>
	<path class="st3" d="M823.6,1034.1H617c-6.6,0-12-5.4-12-12V836.9c0-6.6,5.4-12,12-12h206.7c6.6,0,12,5.4,12,12V1022
		C835.6,1028.7,830.2,1034.1,823.6,1034.1z"/>
	<text transform="matrix(1 0 0 1 417.5601 378.2085)" class="st4 st5 st6">Home</text>
	<text transform="matrix(1 0 0 1 656.5148 378.2085)" class="st4 st5 st6">About us</text>
	<text transform="matrix(1 0 0 1 928.3634 378.2085)" class="st4 st5 st6">Galery</text>
	<text transform="matrix(1 0 0 1 1152.7615 378.2085)" class="st4 st5 st6">Contact</text>
	<path class="st7" d="M548.6,417.2H408.7c-2,0-3.6-1.6-3.6-3.6l0,0c0-2,1.6-3.6,3.6-3.6h139.9c2,0,3.6,1.6,3.6,3.6l0,0
		C552.2,415.6,550.6,417.2,548.6,417.2z"/>
	<path class="st7" d="M548.6,437.3H408.7c-2,0-3.6-1.6-3.6-3.6l0,0c0-2,1.6-3.6,3.6-3.6h139.9c2,0,3.6,1.6,3.6,3.6l0,0
		C552.2,435.7,550.6,437.3,548.6,437.3z"/>
	<path class="st7" d="M548.6,457.4H408.7c-2,0-3.6-1.6-3.6-3.6l0,0c0-2,1.6-3.6,3.6-3.6h139.9c2,0,3.6,1.6,3.6,3.6l0,0
		C552.2,455.8,550.6,457.4,548.6,457.4z"/>
	<path class="st7" d="M548.6,477.6H408.7c-2,0-3.6-1.6-3.6-3.6l0,0c0-2,1.6-3.6,3.6-3.6h139.9c2,0,3.6,1.6,3.6,3.6l0,0
		C552.2,475.9,550.6,477.6,548.6,477.6z"/>
	<path class="st7" d="M548.6,497.7H408.7c-2,0-3.6-1.6-3.6-3.6l0,0c0-2,1.6-3.6,3.6-3.6h139.9c2,0,3.6,1.6,3.6,3.6l0,0
		C552.2,496,550.6,497.7,548.6,497.7z"/>
	<path class="st7" d="M548.6,517.8H408.7c-2,0-3.6-1.6-3.6-3.6l0,0c0-2,1.6-3.6,3.6-3.6h139.9c2,0,3.6,1.6,3.6,3.6l0,0
		C552.2,516.1,550.6,517.8,548.6,517.8z"/>
	<path class="st7" d="M548.6,537.9H408.7c-2,0-3.6-1.6-3.6-3.6l0,0c0-2,1.6-3.6,3.6-3.6h139.9c2,0,3.6,1.6,3.6,3.6l0,0
		C552.2,536.2,550.6,537.9,548.6,537.9z"/>
	<path class="st7" d="M548.6,558H408.7c-2,0-3.6-1.6-3.6-3.6l0,0c0-2,1.6-3.6,3.6-3.6h139.9c2,0,3.6,1.6,3.6,3.6l0,0
		C552.2,556.3,550.6,558,548.6,558z"/>
	<path class="st8" d="M396.5,217.2c0-6.8-5.6-12.4-12.4-12.4s-12.4,5.6-12.4,12.4c0,6,4.3,11,10,12.2v15.9c0,1.3,1.1,2.4,2.4,2.4
		s2.4-1.1,2.4-2.4v-15.9C392.2,228.2,396.5,223.2,396.5,217.2z M384.1,226.4c-5.1,0-9.2-4.1-9.2-9.2c0-5.1,4.1-9.2,9.2-9.2
		s9.2,4.1,9.2,9.2C393.3,222.2,389.1,226.4,384.1,226.4z"/>
</g>
<g>
	<path class="st9" d="M1813.3,16.9c-58.7,0-106.7,48-106.7,106.7v295.3c-2.3,56.8-49.5,102.6-106.8,102.6
		c-50.2,0-92.7-35.2-103.8-82.1v-79.1c0-58.7-48-106.7-106.7-106.7s-106.7,48-106.7,106.7v182.8c-4.8,54.3-50.8,97.3-106.3,97.3
		c-49.6,0-101.3-29.4-103.4-80.4v-4.1c0-58.7-48-106.7-106.7-106.7s-106.7,48-106.7,106.7v582.8h210.1h3.3H1283v-1.7h210.2v1.7
		h213.4h0.1H1920V123.6C1920,64.9,1872,16.9,1813.3,16.9z"/>
	<path class="st9" d="M752.6,879c-49.6,0-91.6-34.3-103.4-80.4V683.9c0-58.7-48-106.7-106.7-106.7s-106.7,48-106.7,106.7v191.8
		c-2.4,56.8-49.5,102.6-106.8,102.6c-58.7,0-106.7-48-106.7-106.7l0,0c1.3-51.7-48-76-106.7-76S8.9,843.6,8.9,902.3v236.4h213.5
		h213.5v-0.1H646h3.3h210.2V772.3C859.3,831,811.3,879,752.6,879z"/>
</g>
</svg>
