<?xml version="1.0" encoding="utf-8"?>
<!-- Generator: Adobe Illustrator 23.0.5, SVG Export Plug-In . SVG Version: 6.00 Build 0)  -->
<svg version="1.1" xmlns="http://www.w3.org/2000/svg" xmlns:xlink="http://www.w3.org/1999/xlink" x="0px" y="0px"
	 viewBox="0 0 1920 1080" style="enable-background:new 0 0 1920 1080;" xml:space="preserve">
<style type="text/css">
	.st0{display:none;}
	.st1{display:inline;fill:#D8EFFC;stroke:#283B90;stroke-width:6;stroke-miterlimit:10;}
	.st2{fill:#0B7CC1;}
	.st3{fill:#FFFFFF;}
	.st4{font-family:'AkzidenzGroteskBQ-Cnd';}
	.st5{font-size:44.6518px;}
	.st6{fill:#D8EFFC;}
	.st7{fill:#283B90;}
	.st8{display:inline;}
	.st9{fill:#FCC022;}
</style>
<g id="Capa_1" class="st0">
	<path class="st1" d="M1553.2,1062.2H366.8c-25.6,0-46.6-21-46.6-46.6V111.5c0-25.6,21-46.6,46.6-46.6h1186.5
		c25.6,0,46.6,21,46.6,46.6v904.2C1599.8,1041.2,1578.8,1062.2,1553.2,1062.2z"/>
</g>
<g id="botones">
	<path class="st2" d="M1516.8,290.3H367.7c-6.6,0-12-5.4-12-12v-31.8c0-6.6,5.4-12,12-12h1149.1c6.6,0,12,5.4,12,12v31.8
		C1528.8,284.9,1523.4,290.3,1516.8,290.3z"/>
	<path class="st3" d="M1516.8,209H367.7c-6.6,0-12-5.4-12-12v-30.6c0-6.6,5.4-12,12-12h1149.1c6.6,0,12,5.4,12,12V197
		C1528.8,203.6,1523.4,209,1516.8,209z"/>
	<path class="st3" d="M566,977.8H367.7c-6.6,0-12-5.4-12-12V355.6c0-6.6,5.4-12,12-12H566c6.6,0,12,5.4,12,12v610.3
		C578,972.4,572.6,977.8,566,977.8z"/>
	<path class="st3" d="M822.6,552.7H616c-6.6,0-12-5.4-12-12V355.6c0-6.6,5.4-12,12-12h206.7c6.6,0,12,5.4,12,12v185.1
		C834.6,547.3,829.2,552.7,822.6,552.7z"/>
	<path class="st3" d="M1078,552.7H871.3c-6.6,0-12-5.4-12-12V355.6c0-6.6,5.4-12,12-12H1078c6.6,0,12,5.4,12,12v185.1
		C1090,547.3,1084.6,552.7,1078,552.7z"/>
	<path class="st3" d="M1332.3,552.7h-206.7c-6.6,0-12-5.4-12-12V355.6c0-6.6,5.4-12,12-12h206.7c6.6,0,12,5.4,12,12v185.1
		C1344.3,547.3,1338.9,552.7,1332.3,552.7z"/>
	<path class="st3" d="M823.6,781.1H617c-6.6,0-12-5.4-12-12V584c0-6.6,5.4-12,12-12h206.7c6.6,0,12,5.4,12,12v185.1
		C835.6,775.7,830.2,781.1,823.6,781.1z"/>
	<path class="st3" d="M1078,781.1H871.3c-6.6,0-12-5.4-12-12V584c0-6.6,5.4-12,12-12H1078c6.6,0,12,5.4,12,12v185.1
		C1090,775.7,1084.6,781.1,1078,781.1z"/>
	<path class="st3" d="M1332.3,781.1h-206.7c-6.6,0-12-5.4-12-12V584c0-6.6,5.4-12,12-12h206.7c6.6,0,12,5.4,12,12v185.1
		C1344.3,775.7,1338.9,781.1,1332.3,781.1z"/>
	<path class="st3" d="M823.6,989.6H617c-6.6,0-12-5.4-12-12V792.4c0-6.6,5.4-12,12-12h206.7c6.6,0,12,5.4,12,12v185.1
		C835.6,984.2,830.2,989.6,823.6,989.6z"/>
	<text transform="matrix(1 0 0 1 417.5601 333.7285)" class="st4 st5">Home</text>
	<text transform="matrix(1 0 0 1 656.5148 333.7285)" class="st4 st5">About us</text>
	<text transform="matrix(1 0 0 1 928.3634 333.7285)" class="st4 st5">Galery</text>
	<text transform="matrix(1 0 0 1 1152.7615 333.7285)" class="st4 st5">Contact</text>
	<path class="st6" d="M548.6,372.7H408.7c-2,0-3.6-1.6-3.6-3.6l0,0c0-2,1.6-3.6,3.6-3.6h139.9c2,0,3.6,1.6,3.6,3.6l0,0
		C552.2,371.1,550.6,372.7,548.6,372.7z"/>
	<path class="st6" d="M548.6,392.8H408.7c-2,0-3.6-1.6-3.6-3.6l0,0c0-2,1.6-3.6,3.6-3.6h139.9c2,0,3.6,1.6,3.6,3.6l0,0
		C552.2,391.2,550.6,392.8,548.6,392.8z"/>
	<path class="st6" d="M548.6,412.9H408.7c-2,0-3.6-1.6-3.6-3.6v0c0-2,1.6-3.6,3.6-3.6h139.9c2,0,3.6,1.6,3.6,3.6v0
		C552.2,411.3,550.6,412.9,548.6,412.9z"/>
	<path class="st6" d="M548.6,433.1H408.7c-2,0-3.6-1.6-3.6-3.6l0,0c0-2,1.6-3.6,3.6-3.6h139.9c2,0,3.6,1.6,3.6,3.6l0,0
		C552.2,431.4,550.6,433.1,548.6,433.1z"/>
	<path class="st6" d="M548.6,453.2H408.7c-2,0-3.6-1.6-3.6-3.6v0c0-2,1.6-3.6,3.6-3.6h139.9c2,0,3.6,1.6,3.6,3.6v0
		C552.2,451.5,550.6,453.2,548.6,453.2z"/>
	<path class="st6" d="M548.6,473.3H408.7c-2,0-3.6-1.6-3.6-3.6l0,0c0-2,1.6-3.6,3.6-3.6h139.9c2,0,3.6,1.6,3.6,3.6l0,0
		C552.2,471.6,550.6,473.3,548.6,473.3z"/>
	<path class="st6" d="M548.6,493.4H408.7c-2,0-3.6-1.6-3.6-3.6l0,0c0-2,1.6-3.6,3.6-3.6h139.9c2,0,3.6,1.6,3.6,3.6l0,0
		C552.2,491.7,550.6,493.4,548.6,493.4z"/>
	<path class="st6" d="M548.6,513.5H408.7c-2,0-3.6-1.6-3.6-3.6l0,0c0-2,1.6-3.6,3.6-3.6h139.9c2,0,3.6,1.6,3.6,3.6l0,0
		C552.2,511.8,550.6,513.5,548.6,513.5z"/>
	<path class="st7" d="M396.5,172.7c0-6.8-5.6-12.4-12.4-12.4c-6.8,0-12.4,5.6-12.4,12.4c0,6,4.3,11,10,12.2l0,15.9
		c0,1.3,1.1,2.4,2.4,2.4c1.3,0,2.4-1.1,2.4-2.4l0-15.9C392.2,183.7,396.5,178.7,396.5,172.7z M384.1,181.9c-5.1,0-9.2-4.1-9.2-9.2
		c0-5.1,4.1-9.2,9.2-9.2c5.1,0,9.2,4.1,9.2,9.2C393.3,177.7,389.1,181.9,384.1,181.9z"/>
</g>
<g id="Capa_2" class="st0">
	<g class="st8">
		<path class="st9" d="M1813.3-27.6L1813.3-27.6c-58.7,0-106.7,48-106.7,106.7l0,1015.1H1920V79.1C1920,20.4,1872-27.6,1813.3-27.6z
			"/>
		<path class="st9" d="M329,933.8L329,933.8c-58.7,0-106.7-48-106.7-106.7v30.7c0-58.7-48-106.7-106.7-106.7h0
			c-58.7,0-106.7,48-106.7,106.7v236.4h213.5h213.5l0-267.1C435.7,885.8,387.7,933.8,329,933.8z"/>
		<path class="st9" d="M752.6,834.5L752.6,834.5c-49.6,0-91.6-34.3-103.4-80.4V639.4c0-58.7-48-106.7-106.7-106.7h0
			c-58.7,0-106.7,48-106.7,106.7l0,454.7h210.2h3.3h210.2V727.8C859.3,786.5,811.3,834.5,752.6,834.5z"/>
		<path class="st9" d="M1599.8,477L1599.8,477c-50.2,0-92.7-35.2-103.8-82.1v-79.1c0-58.7-48-106.7-106.7-106.7h0
			c-58.7,0-106.7,48-106.7,106.7l0,182.8c-4.8,54.3-50.8,97.3-106.3,97.3h0c-49.6,0-91.6-34.3-103.4-80.4v-4.1
			c0-58.7-48-106.7-106.7-106.7h0c-58.7,0-106.7,48-106.7,106.7v582.8h210.1h3.3h210.1v-1.7h210.2v1.7h213.5V370.3
			C1706.5,429,1658.5,477,1599.8,477z"/>
	</g>
</g>
</svg>
